<?xml version="1.0" standalone="no"?>
<!DOCTYPE svg PUBLIC "-//W3C//DTD SVG 20010904//EN"
 "http://www.w3.org/TR/2001/REC-SVG-20010904/DTD/svg10.dtd">
<svg version="1.0" xmlns="http://www.w3.org/2000/svg"
 width="500.000000pt" height="500.000000pt" viewBox="0 0 500.000000 500.000000"
 preserveAspectRatio="xMidYMid meet">

<g transform="translate(0.000000,500.000000) scale(0.100000,-0.100000)"
fill="#000000" stroke="none">
<path d="M2325 3929 c-356 -22 -716 -188 -980 -453 -222 -224 -358 -469 -431
-781 -26 -111 -28 -135 -28 -325 0 -226 15 -323 75 -505 164 -496 595 -899
1095 -1026 166 -42 267 -52 449 -47 182 6 331 34 495 95 362 133 675 411 850
755 142 276 198 559 170 853 -46 488 -297 914 -695 1177 -301 200 -616 281
-1000 257z m345 -104 c476 -72 887 -371 1103 -800 221 -441 208 -968 -35
-1392 -149 -259 -357 -456 -623 -587 -251 -124 -422 -161 -710 -153 -192 6
-268 18 -418 68 -133 44 -229 92 -352 174 -279 187 -475 443 -580 759 -60 180
-70 248 -70 476 0 280 28 404 145 645 186 385 533 670 944 776 192 50 412 62
596 34z"/>
<path d="M2246 3624 c-13 -13 -16 -43 -16 -174 0 -147 -1 -160 -19 -170 -11
-5 -85 -10 -170 -10 -123 0 -152 -3 -165 -16 -24 -23 -24 -385 0 -408 12 -13
39 -16 123 -16 l108 0 32 60 c32 60 56 181 54 278 0 33 3 42 17 42 9 0 21 -10
27 -22 l10 -23 13 25 c22 41 82 110 96 110 27 0 25 -24 -6 -68 l-32 -46 52 47
c56 51 67 55 77 31 4 -10 -10 -32 -38 -62 l-44 -46 43 37 c65 57 88 30 29 -34
-17 -19 -38 -43 -46 -52 -23 -28 5 -20 42 13 72 63 80 17 9 -50 -26 -25 -59
-63 -72 -85 -14 -22 -39 -56 -57 -76 -18 -20 -44 -67 -59 -105 -23 -63 -25
-79 -22 -197 2 -100 6 -130 18 -137 23 -15 393 -13 408 2 19 19 14 68 -12 124
-24 51 -61 96 -173 210 -35 35 -63 68 -63 74 0 17 24 11 63 -16 21 -14 40 -24
43 -22 2 2 -17 24 -41 48 -25 24 -45 50 -45 56 0 28 22 22 67 -18 l48 -42 -49
51 c-45 47 -53 73 -22 73 7 0 32 -17 56 -37 28 -24 39 -30 32 -17 -6 12 -18
26 -26 34 -19 15 -21 36 -5 46 12 7 96 -71 105 -98 5 -17 8 -16 26 7 27 35 44
27 40 -18 -2 -21 -1 -51 3 -67 l7 -30 153 0 c198 0 185 -15 185 220 0 235 13
220 -184 220 -115 0 -157 3 -172 14 -17 13 -19 30 -22 173 -2 90 -8 163 -14
170 -8 10 -60 13 -204 13 -162 0 -195 -3 -208 -16z"/>
<path d="M2827 3564 c-4 -4 -7 -18 -7 -30 0 -17 -7 -23 -27 -26 -25 -3 -28 -7
-28 -38 0 -31 3 -35 27 -38 21 -3 27 -9 30 -30 3 -24 7 -27 38 -27 31 0 35 3
38 27 3 21 9 27 30 30 24 3 27 7 27 38 0 31 -3 35 -27 38 -21 3 -27 9 -30 30
-2 22 -9 28 -33 30 -17 2 -34 0 -38 -4z"/>
<path d="M1760 2127 c-78 -27 -74 -107 9 -154 52 -31 61 -41 54 -60 -6 -15
-60 -17 -97 -3 -24 9 -26 7 -26 -19 0 -34 14 -41 79 -41 66 0 101 28 101 79 0
41 -13 58 -70 86 -53 27 -63 47 -31 64 12 7 30 7 52 1 37 -11 34 -12 43 17 7
22 4 24 -54 36 -14 3 -41 0 -60 -6z"/>
<path d="M1996 1997 c-25 -73 -46 -136 -46 -140 0 -4 13 -7 29 -7 25 0 31 6
41 35 12 36 12 36 63 33 48 -3 52 -5 61 -35 8 -29 13 -33 42 -33 l33 0 -13 33
c-7 17 -30 80 -51 140 l-37 107 -38 0 -37 0 -47 -133z m91 -25 c-16 -2 -31 -1
-34 2 -4 4 5 43 24 96 3 9 12 -9 22 -40 l17 -55 -29 -3z"/>
<path d="M2300 1990 l0 -140 30 0 c30 0 30 1 30 55 l0 55 45 0 c41 0 45 2 45
25 0 23 -4 25 -45 25 -45 0 -45 0 -45 35 l0 35 50 0 c47 0 50 2 50 25 0 25 -1
25 -80 25 l-80 0 0 -140z"/>
<path d="M2560 1990 l0 -140 80 0 c79 0 80 0 80 25 0 23 -3 25 -50 25 l-50 0
0 35 0 35 50 0 c47 0 50 2 50 25 0 23 -3 25 -50 25 -49 0 -50 1 -50 30 0 29 1
30 50 30 47 0 50 2 50 25 0 25 -1 25 -80 25 l-80 0 0 -140z"/>
<path d="M2810 2105 c0 -22 4 -25 35 -25 l35 0 0 -115 0 -115 30 0 30 0 0 115
0 115 40 0 c36 0 40 3 40 25 l0 25 -105 0 -105 0 0 -25z"/>
<path d="M3080 2124 c0 -4 20 -44 45 -90 37 -67 45 -92 45 -133 0 -50 1 -51
30 -51 30 0 30 0 30 59 0 51 6 71 40 133 22 40 40 76 40 81 0 4 -13 7 -28 7
-24 0 -32 -8 -56 -57 l-28 -58 -29 58 c-26 50 -33 57 -59 57 -17 0 -30 -3 -30
-6z"/>
<path d="M2765 1672 c-32 -6 -55 -33 -55 -62 0 -31 11 -43 72 -73 48 -24 58
-46 32 -72 -14 -14 -27 -16 -67 -11 -38 5 -48 4 -45 -6 3 -9 24 -13 63 -13 51
0 60 3 78 27 28 38 12 71 -50 101 -38 17 -49 28 -51 49 -3 22 2 29 21 33 13 4
34 5 48 3 13 -2 25 2 27 7 3 12 -44 23 -73 17z"/>
<path d="M1840 1550 c0 -100 3 -120 15 -120 11 0 15 12 15 49 l0 50 47 3 c66
4 70 28 4 28 l-51 0 0 45 0 45 50 0 c28 0 50 5 50 10 0 6 -28 10 -65 10 l-65
0 0 -120z"/>
<path d="M2150 1550 c0 -100 3 -120 15 -120 13 0 15 20 15 120 0 100 -2 120
-15 120 -12 0 -15 -20 -15 -120z"/>
<path d="M2380 1550 c0 -100 3 -120 15 -120 11 0 15 12 15 50 0 46 2 50 24 50
19 0 31 -11 53 -50 17 -30 35 -50 45 -50 15 0 12 9 -16 53 l-33 52 23 18 c30
22 32 69 4 97 -15 15 -33 20 -75 20 l-55 0 0 -120z m101 90 c19 -11 25 -45 11
-67 -4 -6 -24 -14 -45 -18 l-37 -7 0 51 c0 48 1 51 26 51 14 0 34 -5 45 -10z"/>
<path d="M3010 1661 c0 -6 17 -11 38 -13 l37 -3 3 -107 c1 -60 7 -108 12 -108
5 0 11 48 12 108 l3 107 38 3 c73 6 35 22 -53 22 -49 0 -90 -4 -90 -9z"/>
<path d="M1928 1265 c-13 -30 5 -55 53 -76 22 -9 29 -18 27 -33 -2 -17 -11
-22 -45 -24 -56 -4 -56 -22 0 -22 50 0 67 13 67 53 0 22 -7 31 -33 42 -19 8
-39 20 -46 28 -19 23 12 48 49 40 19 -3 30 -1 30 6 0 6 -18 11 -45 11 -39 0
-47 -4 -57 -25z"/>
<path d="M2150 1280 c0 -5 14 -10 30 -10 l30 0 0 -80 c0 -47 4 -80 10 -80 6 0
10 33 10 80 l0 80 30 0 c17 0 30 5 30 10 0 6 -30 10 -70 10 -40 0 -70 -4 -70
-10z"/>
<path d="M2431 1264 c-13 -16 -21 -41 -21 -64 0 -54 31 -90 79 -90 53 0 81 32
81 93 0 60 -24 87 -79 87 -31 0 -44 -6 -60 -26z m99 -4 c22 -22 27 -78 10
-111 -15 -28 -74 -26 -94 3 -23 33 -20 75 9 103 29 30 49 31 75 5z"/>
<path d="M2710 1200 c0 -73 3 -90 15 -90 11 0 15 11 15 40 0 29 4 40 15 40 8
0 26 -18 40 -40 33 -52 53 -52 24 -1 -20 37 -21 41 -5 56 39 40 7 85 -60 85
l-44 0 0 -90z m99 46 c4 -22 -23 -46 -51 -46 -14 0 -18 8 -18 36 0 34 1 35 32
32 23 -2 34 -9 37 -22z"/>
<path d="M2970 1200 l0 -90 55 0 c30 0 55 5 55 10 0 6 -18 10 -40 10 -39 0
-40 1 -40 34 0 33 2 35 38 39 l37 4 -37 1 c-35 2 -38 4 -38 32 0 28 3 30 34
30 19 0 38 5 41 10 4 6 -15 10 -49 10 l-56 0 0 -90z"/>
</g>
</svg>
